<?xml version="1.0" encoding="UTF-8" standalone="no" ?>
<!DOCTYPE svg PUBLIC "-//W3C//DTD SVG 1.1//EN" "http://www.w3.org/Graphics/SVG/1.1/DTD/svg11.dtd">
<svg xmlns="http://www.w3.org/2000/svg" xmlns:xlink="http://www.w3.org/1999/xlink" version="1.1" width="1280" height="1024" viewBox="0 0 1280 1024" xml:space="preserve">
<desc>Created with Fabric.js 5.3.0</desc>
<defs>
</defs>
<g transform="matrix(1 0 0 1 640 512)" id="background-logo"  >
<rect style="stroke: none; stroke-width: 0; stroke-dasharray: none; stroke-linecap: butt; stroke-dashoffset: 0; stroke-linejoin: miter; stroke-miterlimit: 4; fill: rgb(255,255,255); fill-rule: nonzero; opacity: 1;"  paint-order="stroke"  x="-640" y="-512" rx="0" ry="0" width="1280" height="1024" />
</g>
<g transform="matrix(1.9211538461538462 0 0 1.9211538461538462 640 413.2836802474469)" id="logo-logo"  >
<g style=""  paint-order="stroke"   >
		<g transform="matrix(0.14895104255849556 0 0 -0.14895104255849564 0.00030156481562926274 -58.20238180224612)"  >
<linearGradient id="SVGID_2_4284" gradientUnits="userSpaceOnUse" gradientTransform="matrix(1 0 0 1 1381.3099999999997 9419.72)"  x1="0" y1="0" x2="0" y2="601">
<stop offset="0%" style="stop-color:rgb(91,36,122);stop-opacity: 1"/>
<stop offset="100%" style="stop-color:rgb(27,206,223);stop-opacity: 1"/>
</linearGradient>
<path style="stroke: none; stroke-width: 1; stroke-dasharray: none; stroke-linecap: butt; stroke-dashoffset: 0; stroke-linejoin: miter; stroke-miterlimit: 4; fill: url(#SVGID_2_4284); fill-rule: nonzero; opacity: 1;"  paint-order="stroke"  transform=" translate(-1624.9999999999998, -9720.16)" d="M 1534.66 9776.93 C 1534.66 9826.75 1575.19 9867.27 1625 9867.27 C 1674.81 9867.27 1715.34 9826.75 1715.34 9776.93 L 1715.34 9588.89 L 1715.34 9573.07 L 1715.34 9573.07 C 1715.34 9488.38 1784 9419.72 1868.6899999999998 9419.72 L 1868.6899999999998 9419.72 L 1868.6899999999998 9573.07 L 1868.6899999999998 9776.93 C 1868.6899999999998 9911.300000000001 1759.37 10020.6 1624.9999999999998 10020.6 C 1490.6299999999997 10020.6 1381.3099999999997 9911.300000000001 1381.3099999999997 9776.93 L 1381.3099999999997 9609.380000000001 L 1534.6599999999996 9609.380000000001 L 1534.6599999999996 9776.93" stroke-linecap="round" />
</g>
		<g transform="matrix(0.14895104255849556 0 0 -0.14895104255849564 58.20269252388823 -0.0015169809047108629)"  >
<path style="stroke: none; stroke-width: 1; stroke-dasharray: none; stroke-linecap: butt; stroke-dashoffset: 0; stroke-linejoin: miter; stroke-miterlimit: 4; fill: rgb(68,97,158); fill-rule: nonzero; opacity: 1;"  paint-order="stroke"  transform=" translate(-2015.7850000000003, -9329.384999999998)" d="M 2072.55 9419.72 C 2122.36 9419.72 2162.8900000000003 9379.199999999999 2162.8900000000003 9329.38 C 2162.8900000000003 9279.57 2122.36 9239.039999999999 2072.55 9239.039999999999 L 1884.5100000000002 9239.039999999999 L 1868.6900000000003 9239.039999999999 L 1868.6900000000003 9239.039999999999 C 1784.0000000000002 9239.039999999999 1715.3400000000004 9170.39 1715.3400000000004 9085.699999999999 L 1715.3400000000004 9085.699999999999 L 1868.6900000000003 9085.699999999999 L 2072.55 9085.699999999999 C 2206.92 9085.699999999999 2316.23 9195.019999999999 2316.23 9329.38 C 2316.23 9463.75 2206.92 9573.07 2072.55 9573.07 L 1905 9573.07 L 1905 9419.72 L 2072.55 9419.72" stroke-linecap="round" />
</g>
		<g transform="matrix(0.14895104255849556 0 0 -0.14895104255849564 0.00030156481562926274 58.2016370470333)"  >
<linearGradient id="SVGID_2_4285" gradientUnits="userSpaceOnUse" gradientTransform="matrix(1 0 0 1 1381.3100000000002 8638.150000000001)"  x1="0" y1="0" x2="0" y2="601">
<stop offset="0%" style="stop-color:rgb(91,36,122);stop-opacity: 1"/>
<stop offset="100%" style="stop-color:rgb(27,206,223);stop-opacity: 1"/>
</linearGradient>
<path style="stroke: none; stroke-width: 1; stroke-dasharray: none; stroke-linecap: butt; stroke-dashoffset: 0; stroke-linejoin: miter; stroke-miterlimit: 4; fill: url(#SVGID_2_4285); fill-rule: nonzero; opacity: 1;"  paint-order="stroke"  transform=" translate(-1625.0000000000002, -8938.595000000001)" d="M 1715.34 8881.84 C 1715.34 8832.02 1674.81 8791.49 1625 8791.49 C 1575.19 8791.49 1534.66 8832.02 1534.66 8881.84 L 1534.66 9069.880000000001 L 1534.66 9085.7 L 1534.66 9085.7 C 1534.66 9170.390000000001 1466 9239.04 1381.3100000000002 9239.04 L 1381.3100000000002 9239.04 L 1381.3100000000002 9085.7 L 1381.3100000000002 8881.84 C 1381.3100000000002 8747.460000000001 1490.63 8638.15 1625.0000000000002 8638.15 C 1759.3700000000003 8638.15 1868.6900000000003 8747.46 1868.6900000000003 8881.84 L 1868.6900000000003 9049.380000000001 L 1715.3400000000004 9049.380000000001 L 1715.3400000000004 8881.84" stroke-linecap="round" />
</g>
		<g transform="matrix(0.14895104255849556 0 0 -0.14895104255849564 -58.20239462180308 -0.0015169809047108629)"  >
<path style="stroke: none; stroke-width: 1; stroke-dasharray: none; stroke-linecap: butt; stroke-dashoffset: 0; stroke-linejoin: miter; stroke-miterlimit: 4; fill: rgb(68,97,158); fill-rule: nonzero; opacity: 1;"  paint-order="stroke"  transform=" translate(-1234.2129999999997, -9329.385000000002)" d="M 1177.45 9239.04 C 1127.64 9239.04 1087.1100000000001 9279.570000000002 1087.1100000000001 9329.380000000001 C 1087.1100000000001 9379.2 1127.64 9419.720000000001 1177.45 9419.720000000001 L 1365.49 9419.720000000001 L 1381.31 9419.720000000001 L 1381.31 9419.720000000001 C 1466 9419.720000000001 1534.6599999999999 9488.380000000001 1534.6599999999999 9573.070000000002 L 1534.6599999999999 9573.070000000002 L 1381.31 9573.070000000002 L 1177.4499999999998 9573.070000000002 C 1043.0899999999997 9573.070000000002 933.7659999999998 9463.750000000002 933.7659999999998 9329.380000000001 C 933.7659999999998 9195.02 1043.09 9085.7 1177.4499999999998 9085.7 L 1345 9085.7 L 1345 9239.04 L 1177.45 9239.04" stroke-linecap="round" />
</g>
</g>
</g>
<g transform="matrix(1.9211538461538462 0 0 1.9211538461538462 642.502753155048 696.6620559766687)" id="text-logo"  >
<g style=""  paint-order="stroke"   >
		<g transform="matrix(1 0 0 1 0 0)" id="text-logo-path-0"  >
<path style="stroke: none; stroke-width: 0.6191684402685238; stroke-dasharray: none; stroke-linecap: butt; stroke-dashoffset: 0; stroke-linejoin: miter; stroke-miterlimit: 4; fill: rgb(76,74,144); fill-rule: nonzero; opacity: 1;"  paint-order="stroke"  transform=" translate(-186.59500000000003, 19.09)" d="M 7.82 0 L 3.96 0 L 3.96 -32.29 Q 3.96 -38.18 8.95 -38.18 L 8.95 -38.18 L 12.8 -38.18 L 12.8 -22.94 L 25.6 -22.94 L 25.6 -32.29 Q 25.6 -38.18 30.59 -38.18 L 30.59 -38.18 L 34.44 -38.18 L 34.44 -5.66 Q 34.44 0 29.45 0 L 29.45 0 L 25.6 0 L 25.6 -15.92 L 12.8 -15.92 L 12.8 -5.66 Q 12.8 0 7.82 0 L 7.82 0 Z M 72.55 0 L 55.84 0 Q 47.74 0 47.74 -8.33 L 47.74 -8.33 L 47.74 -30.93 Q 47.74 -38.18 54.82 -38.18 L 54.82 -38.18 L 72.32 -38.18 Q 72.32 -31.21 65.47 -31.21 L 65.47 -31.21 L 58.62 -31.21 Q 56.29 -31.21 56.29 -28.89 L 56.29 -28.89 L 56.29 -22.83 L 66.32 -22.83 Q 69.72 -22.83 69.72 -19.37 L 69.72 -19.37 Q 69.72 -15.86 66.32 -15.86 L 66.32 -15.86 L 56.29 -15.86 L 56.29 -10.2 Q 56.29 -6.97 59.58 -6.97 L 59.58 -6.97 L 65.58 -6.97 Q 72.55 -6.97 72.55 0 L 72.55 0 Z M 83.19 0 L 78.89 0 L 89.02 -33.42 Q 90.44 -38.18 96.27 -38.18 L 96.27 -38.18 L 102.05 -38.18 L 113.55 0 L 109.13 0 Q 104.66 0 103.58 -3.96 L 103.58 -3.96 L 102.51 -7.87 L 89.65 -7.87 L 88.57 -3.96 Q 87.5 0 83.19 0 L 83.19 0 Z M 96.16 -31.49 L 91.46 -14.39 L 100.75 -14.39 L 96.16 -31.49 Z M 145.43 0 L 130.31 0 Q 122.15 0 122.15 -8.33 L 122.15 -8.33 L 122.15 -32.51 Q 122.15 -38.18 127.14 -38.18 L 127.14 -38.18 L 130.99 -38.18 L 130.99 -10.88 Q 130.99 -7.7 134.27 -7.7 L 134.27 -7.7 L 139.37 -7.7 Q 145.43 -7.7 145.43 0 L 145.43 0 Z M 161 0 L 157.15 0 L 157.15 -30.53 L 152.16 -30.53 Q 147.18 -30.53 147.18 -34.66 L 147.18 -34.66 L 147.18 -38.18 L 170.97 -38.18 Q 175.95 -38.18 175.95 -34.1 L 175.95 -34.1 L 175.95 -30.53 L 165.98 -30.53 L 165.98 -5.66 Q 165.98 0 161 0 L 161 0 Z M 186.71 0 L 182.86 0 L 182.86 -32.29 Q 182.86 -38.18 187.84 -38.18 L 187.84 -38.18 L 191.69 -38.18 L 191.69 -22.94 L 204.49 -22.94 L 204.49 -32.29 Q 204.49 -38.18 209.48 -38.18 L 209.48 -38.18 L 213.33 -38.18 L 213.33 -5.66 Q 213.33 0 208.34 0 L 208.34 0 L 204.49 0 L 204.49 -15.92 L 191.69 -15.92 L 191.69 -5.66 Q 191.69 0 186.71 0 L 186.71 0 Z M 237.39 0.79 L 237.39 0.79 Q 230.54 0.79 225.16 -1.08 L 225.16 -1.08 Q 225.16 -7.93 229.29 -7.93 L 229.29 -7.93 Q 230.03 -7.93 232.3 -7.17 Q 234.56 -6.4 236.83 -6.4 L 236.83 -6.4 Q 243.57 -6.4 243.57 -10.99 L 243.57 -10.99 Q 243.57 -15.01 234.76 -17.05 Q 225.95 -19.09 225.95 -27.13 L 225.95 -27.13 Q 225.95 -38.97 240.34 -38.97 L 240.34 -38.97 Q 246 -38.97 251.27 -37.38 L 251.27 -37.38 Q 251.27 -30.47 247.31 -30.47 L 247.31 -30.47 Q 246.74 -30.47 244.5 -31.12 Q 242.27 -31.78 240.51 -31.78 L 240.51 -31.78 Q 234.34 -31.78 234.34 -27.53 L 234.34 -27.53 Q 234.34 -24.13 243.28 -21.78 Q 252.23 -19.43 252.23 -11.21 L 252.23 -11.21 Q 252.23 0.79 237.39 0.79 Z M 274.83 0 L 270.97 0 L 270.97 -12.74 L 258.51 -38.18 L 263.1 -38.18 Q 267.63 -38.18 269.62 -34.04 L 269.62 -34.04 L 275.56 -21.52 L 281.62 -34.04 Q 283.66 -38.18 287.91 -38.18 L 287.91 -38.18 L 292.16 -38.18 L 279.81 -13.65 L 279.81 -5.66 Q 279.81 0 274.83 0 L 274.83 0 Z M 301.95 0 L 298.61 0 L 298.61 -32.46 Q 298.61 -38.74 304.44 -38.74 L 304.44 -38.74 L 308.01 -38.74 L 322.06 -11.44 L 322.06 -32.51 Q 322.06 -38.18 326.53 -38.18 L 326.53 -38.18 L 329.87 -38.18 L 329.87 0.57 L 324.61 0.57 Q 320.41 0.57 318.6 -2.95 L 318.6 -2.95 L 306.42 -26.9 L 306.42 -5.66 Q 306.42 0 301.95 0 L 301.95 0 Z M 359.09 0.79 L 359.09 0.79 Q 350.31 0.79 346.04 -3.99 Q 341.76 -8.78 341.76 -15.41 L 341.76 -15.41 L 341.76 -22.03 Q 341.76 -28.72 346.21 -33.84 Q 350.65 -38.97 359.32 -38.97 L 359.32 -38.97 Q 365.15 -38.97 369.01 -37.72 L 369.01 -37.72 Q 369.01 -30.87 364.36 -30.87 L 364.36 -30.87 Q 363.79 -30.87 362.26 -31.29 Q 360.74 -31.72 359.26 -31.72 L 359.26 -31.72 Q 355.47 -31.72 353.23 -28.6 Q 350.99 -25.49 350.99 -20.96 L 350.99 -20.96 L 350.99 -16.65 Q 350.99 -12.18 353.15 -9.37 Q 355.3 -6.57 359.26 -6.57 L 359.26 -6.57 Q 361.08 -6.57 362.66 -7.08 Q 364.25 -7.59 364.87 -7.59 L 364.87 -7.59 Q 369.23 -7.59 369.23 -0.51 L 369.23 -0.51 Q 365.61 0.79 359.09 0.79 Z" stroke-linecap="round" />
</g>
</g>
</g>
</svg>